<?xml version="1.0" encoding="UTF-8" standalone="no"?>
<svg
   xmlns:dc="http://purl.org/dc/elements/1.1/"
   xmlns:cc="http://creativecommons.org/ns#"
   xmlns:rdf="http://www.w3.org/1999/02/22-rdf-syntax-ns#"
   xmlns:svg="http://www.w3.org/2000/svg"
   xmlns="http://www.w3.org/2000/svg"
   xmlns:sodipodi="http://sodipodi.sourceforge.net/DTD/sodipodi-0.dtd"
   xmlns:inkscape="http://www.inkscape.org/namespaces/inkscape"
   version="1.0"
   width="1226.000000pt"
   height="1238.000000pt"
   viewBox="0 0 1226.000000 1238.000000"
   preserveAspectRatio="xMidYMid meet"
   id="svg140"
   sodipodi:docname="logo1.svg"
   inkscape:version="1.0.2 (1.0.2+r75+1)">
  <defs
     id="defs144" />
  <sodipodi:namedview
     pagecolor="#ffffff"
     bordercolor="#666666"
     borderopacity="1"
     objecttolerance="10"
     gridtolerance="10"
     guidetolerance="10"
     inkscape:pageopacity="0"
     inkscape:pageshadow="2"
     inkscape:window-width="1280"
     inkscape:window-height="744"
     id="namedview142"
     showgrid="false"
     inkscape:zoom="0.305937"
     inkscape:cx="817.33333"
     inkscape:cy="825.33333"
     inkscape:window-x="0"
     inkscape:window-y="0"
     inkscape:window-maximized="1"
     inkscape:current-layer="svg140" />
  <metadata
     id="metadata96">
Created by potrace 1.16, written by Peter Selinger 2001-2019
<rdf:RDF>
  <cc:Work
     rdf:about="">
    <dc:format>image/svg+xml</dc:format>
    <dc:type
       rdf:resource="http://purl.org/dc/dcmitype/StillImage" />
  </cc:Work>
</rdf:RDF>
</metadata>
  <path
     d="m 523.5,75.5 c -13.1,2.4 -35.5,9.3 -50.5,15.7 -2.5,1 -6.3,2.7 -8.5,3.6 -8.6,3.5 -35,17.4 -45.2,23.8 -30.2,18.8 -51.2,38.8 -59.8,56.9 -3.8,8.1 -5.8,18.9 -4.6,25.3 l 0.9,4.3 -4.6,2.2 c -4.1,2 -7.3,5.9 -29.9,36.2 -14,18.7 -27.6,36.9 -30.3,40.5 -2.8,3.6 -11.1,14.8 -18.7,25 -7.6,10.2 -18.2,23.1 -23.8,28.8 -14.8,15.2 -18.4,24.5 -18.5,47.1 0,12.5 1.8,21.5 5.2,25.1 1,1.1 9.5,5.8 18.8,10.5 9.3,4.6 17.1,8.8 17.3,9.2 0.3,0.5 -0.4,7.3 -1.5,15.3 -2.7,20.1 -2.2,36.9 1.5,45.9 5.3,13.1 14,22.1 28,29 8.8,4.3 23.2,8.8 31,9.8 l 4.9,0.6 29.1,-29.1 29.2,-29.1 14.5,-8.5 c 8,-4.7 15.5,-9.2 16.8,-10.1 2.2,-1.6 2.2,-1.9 2.2,-23.9 0,-20.3 -0.2,-22.4 -1.8,-23.9 -2.3,-2.1 -5.1,-2.1 -7.7,-0.1 -1.8,1.4 -2,3 -2.5,21 l -0.5,19.4 -13.5,8 -13.5,7.9 -28.2,28.2 -28.2,28.1 -5.3,-1.2 c -12.9,-3 -31.1,-11.8 -35.6,-17.2 -0.9,-1.2 0.5,-6.4 6.9,-25.9 4.5,-13.4 8.5,-24.7 8.8,-25.2 0.4,-0.4 3.6,0.1 7.2,1.2 13.2,4.1 22.8,4.7 32.1,1.9 5.1,-1.5 7.5,-0.6 13.8,5.3 6.4,5.8 12.3,9.9 14.5,9.9 1.6,0 2.8,-2.2 3.9,-7.6 0.6,-2.5 0.3,-3.2 -1.6,-4.1 -1.3,-0.6 -5.4,-3.8 -9.1,-7.1 -10.9,-9.6 -14.8,-10.7 -27.7,-7.2 -5.5,1.4 -11.8,0.7 -23,-2.6 -9.7,-2.9 -27.3,-11.1 -31.6,-14.7 -1.6,-1.3 -11,-6.5 -20.9,-11.5 -10,-4.9 -18.7,-9.7 -19.3,-10.5 -1.6,-1.9 -3.6,-19.2 -2.5,-21 0.4,-0.7 5,-5.1 10.2,-9.7 l 9.3,-8.3 19.7,1.7 c 10.8,0.9 21.5,1.9 23.9,2.2 2.6,0.4 4.2,0.2 4.2,-0.4 0,-2.1 -9.1,-12.1 -15.2,-16.7 -10.3,-7.8 -15.3,-9.9 -23,-10 -6.5,0 -8.1,-0.6 -5.7,-2.1 0.6,-0.4 17.1,-22.1 36.7,-48.3 57.2,-76.7 51.5,-69.5 58,-72.7 4.1,-2 8,-3 14.1,-3.5 6.2,-0.5 13.4,-2.3 27.7,-7 l 19.3,-6.3 1.7,-4.6 c 3.2,-8.5 14.5,-30.2 21,-40.2 9,-13.9 16.8,-23.9 26.1,-33.3 18.3,-18.6 32.6,-29 57.2,-41.7 10.6,-5.4 11.2,-5.8 7.5,-5.7 -2.1,0 -7,0.7 -10.9,1.4 z"
     id="path98"
     style="fill:#000000;stroke:none;stroke-width:0.1" />
  <path
     d="m 558.5,88.5 c -26.7,4.2 -50.9,15.8 -65.8,31.3 -10.7,11.2 -16.1,27.1 -12.6,37 1.4,4.1 5.1,6.4 10.4,6.4 8.2,0 11,-3 24.5,-25.2 15.2,-25.1 26.6,-36.6 46.5,-47.2 3.9,-2.1 6.6,-3.7 6,-3.7 -0.5,0.1 -4.6,0.7 -9,1.4 z"
     id="path100"
     style="fill:#000000;stroke:none;stroke-width:0.1" />
  <path
     d="m 675.5,87.6 c -16.8,0.8 -36.2,2.7 -51,5 -56.6,8.6 -88,26.8 -87.9,50.9 0,12.3 5.6,21.4 16.1,26.2 6.5,3 17.8,5.1 19.7,3.8 0.8,-0.6 4,-3.3 7.3,-6 25.5,-21.6 57.8,-39.2 94.2,-51.5 18.7,-6.3 57.4,-16.1 82.1,-20.7 l 4.5,-0.9 -8,-1.7 c -16.8,-3.6 -54.9,-6.1 -77,-5.1 z"
     id="path102"
     style="fill:#000000;stroke:none;stroke-width:0.1" />
  <path
     d="m 698.5,133 c -21.3,3.4 -44.9,13.2 -65,27.1 -11.2,7.8 -29.8,24.2 -39.8,35.3 -11,12.1 -22,25.7 -21.4,26.3 0.2,0.2 4.7,-1.5 9.8,-3.7 30.3,-13.2 63.3,-19.2 91.6,-16.9 45.9,3.7 83.4,22.1 146.1,71.6 5,4 13.4,10.6 18.5,14.6 47.1,37.3 71.8,51.4 101.7,58.3 14.7,3.3 33.2,3.4 48,0 5.8,-1.3 12.1,-3 14,-3.8 l 3.5,-1.5 -5.7,-1.2 c -15,-3.2 -33.1,-10.8 -46.3,-19.3 -20,-13 -37.5,-32.2 -61.5,-67.3 -24.7,-36 -32.7,-46.2 -48.1,-61 -30.2,-29.1 -64.5,-48.9 -97.9,-56.6 -9.8,-2.3 -37.7,-3.4 -47.5,-1.9 z"
     id="path104"
     style="fill:#000000;stroke:none;stroke-width:0.1" />
  <path
     d="m 533.1,192.7 c -5,10.1 -6.4,17.7 -6.4,35.3 0,17.8 2.1,32.2 8.3,56.7 8,31.5 25.5,79 42.9,116.8 1.6,3.3 3.2,7.1 3.6,8.4 l 0.7,2.4 -2.4,-1.9 c -1.4,-1 -7.9,-6.4 -14.4,-11.9 -11.1,-9.4 -39.1,-30.8 -45.9,-35.1 -2.1,-1.4 -2.7,-1.5 -2,-0.4 1.2,2 48.8,73.6 54.8,82.3 6.9,10.2 14.2,25.8 19.3,41.3 5.8,17.7 7.8,26 16.9,71 15.4,76.4 23.4,94.8 57.1,131.9 11.9,13.1 20.9,24.1 26.6,32.5 0.9,1.4 0.1,-1.8 -1.8,-7 -12.6,-34.2 -23.7,-77.7 -29.3,-114.5 -2.1,-13.4 -6.1,-44.7 -6.1,-47.4 0,-2.4 1.3,-0.6 10.2,14.9 21.3,36.7 57.7,93.6 83.6,130.9 l 8.6,12.3 22.1,-0.5 c 31.2,-0.7 41.3,-3.6 48.9,-14.4 2.5,-3.6 3,-5.4 3.4,-12.4 l 0.5,-8.1 3.4,-1.5 c 2,-0.8 3.3,-1.6 3,-1.9 -0.3,-0.3 -1.9,0.1 -3.5,1 l -3,1.5 -0.6,-3.4 c -0.5,-2.7 -1.6,-3.9 -5.9,-6.3 -21.4,-12.1 -62.2,-53.1 -101.1,-101.6 -10.6,-13.3 -39.3,-51.4 -48.1,-64 -2.2,-3.1 -5.8,-8.2 -8.1,-11.4 -8.2,-11.5 -29.3,-43.2 -40.1,-60.2 -25.9,-41 -43.7,-71.7 -59.8,-103.5 -13.1,-25.8 -19.2,-39.6 -24.9,-56 l -4.1,-12 V 225 c -0.1,-26.1 -0.4,-32.1 -1.6,-35 l -1.6,-3.5 z"
     id="path106"
     style="fill:#000000;stroke:none;stroke-width:0.1" />
  <path
     d="m 646,222.6 c -1.4,0.2 -6.8,1.2 -12,2 -9.7,1.7 -37,10 -37,11.3 0,0.9 -2.3,-0.3 33,16.9 45.8,22.2 69.9,36 92.8,53.1 11.1,8.3 17,13.6 51.4,46.1 59.7,56.4 106.7,83.4 152.8,88 19.6,1.9 41.5,-1.3 60.5,-8.9 11.7,-4.7 11.7,-4.7 7,-6.7 -20.1,-8.4 -58.2,-27 -64.7,-31.5 -1.4,-1.1 -2.9,-1.9 -3.1,-1.9 -1.1,0 -19.2,-11.3 -32.7,-20.3 -29.4,-19.7 -53.7,-40.1 -76.5,-64.2 -34.9,-37 -47.1,-47.8 -68,-60.4 -15.5,-9.4 -35.6,-17.3 -53.5,-21.2 -7.2,-1.6 -14.1,-2.1 -28.5,-2.4 -10.4,-0.2 -20.1,-0.2 -21.5,0.1 z"
     id="path108"
     style="fill:#000000;stroke:none;stroke-width:0.1" />
  <path
     d="m 369.8,254.7 c -19.8,25 -39.2,49 -41.6,51.5 -4.7,5.1 -1.7,3.8 5.7,-2.5 31.4,-26.4 40.4,-31.6 55.6,-32.5 9.5,-0.5 14,0.6 22,5.3 5.4,3.2 4.3,1.8 -12.5,-14.5 -10.2,-9.8 -19,-17.9 -19.6,-18 -0.5,0 -4.9,4.8 -9.6,10.7 z"
     id="path110"
     style="fill:#000000;stroke:none;stroke-width:0.1" />
  <path
     d="m 638.8,267.6 c 1.7,2.2 3.9,4.7 4.8,5.5 0.9,0.8 6.9,7.2 13.3,14.4 61.4,68.4 113.2,138.3 155.1,209 18.6,31.4 24.2,38.9 42,56.6 53.1,52.6 115.3,44.7 144.9,-18.3 8.9,-18.9 13.6,-37.4 17.6,-69.6 0.4,-3.6 -0.3,-4 -3.1,-1.4 -3.8,3.4 -14,11 -21.4,15.7 -9.6,6.2 -19.4,10.7 -30.6,14.2 -8.2,2.5 -10.3,2.7 -25.4,2.7 -15.2,0 -17.2,-0.2 -25.4,-2.8 -5,-1.5 -13.3,-4.8 -18.5,-7.4 -9.5,-4.7 -12.9,-7.5 -39.6,-32.1 -3.3,-3.1 -8.1,-7.4 -10.5,-9.6 -2.5,-2.2 -21.6,-19.6 -42.5,-38.6 -20.9,-19 -41.4,-37.4 -45.6,-40.9 -15.9,-13.6 -91.4,-78.5 -91.9,-79 -0.7,-0.7 -22.1,-19 -24.5,-20.9 -1,-0.9 -0.5,0.2 1.3,2.5 z"
     id="path112"
     style="fill:#000000;stroke:none;stroke-width:0.1" />
  <path
     d="m 572.1,271 c 2,3.2 18.1,29.9 19.4,32.3 0.6,1 20,33.4 43.1,72 39.3,65.3 42.5,71.1 46.9,83.2 21.8,59.7 57.3,118.5 91.9,151.9 36.2,35 72.3,49.2 110.8,43.6 9.1,-1.3 24.6,-6.4 34.3,-11.2 8.2,-4.2 25.5,-14.9 25.5,-15.9 0,-0.3 -6,-1.8 -13.2,-3.3 -62.4,-13.4 -110.2,-46.8 -134.6,-94.1 -2.2,-4.4 -8.6,-17.2 -14.1,-28.5 -8.6,-17.6 -13.4,-26.5 -24.7,-45.8 -5.2,-8.9 -21,-32.3 -30.1,-44.3 -28.2,-37.5 -66.5,-75.5 -109.4,-108.5 -12.9,-9.9 -36.3,-26.8 -44.4,-32 l -3,-1.9 z"
     id="path114"
     style="fill:#000000;stroke:none;stroke-width:0.1" />
  <path
     d="m 467.4,362.7 c 2.1,45 6.9,62.1 25.4,90.3 7.1,10.9 11,17.2 15.4,24.9 3.7,6.6 10,22.9 13.9,36 3.5,12 3.9,14.5 3.9,24.5 0.1,61.2 18.8,106 58.2,139.3 11.6,9.8 33.2,24.3 34.4,23.1 0.2,-0.3 -3.3,-8.5 -7.7,-18.4 -4.4,-9.8 -11.4,-25.3 -15.4,-34.4 l -7.3,-16.5 -1.1,-23 c -0.6,-12.7 -1.8,-39.9 -2.7,-60.5 -1.5,-36.6 -1.6,-37.7 -4.6,-47.5 C 567,458.2 542.1,417.6 507.7,382.9 492.9,368 469.9,348 467.5,348 c -0.4,0 -0.5,6.6 -0.1,14.7 z"
     id="path116"
     style="fill:#000000;stroke:none;stroke-width:0.1" />
  <path
     d="m 462.4,432.2 c -2.7,3.5 -10.3,11.9 -17,18.8 -20.7,21.4 -26.1,28 -32.7,39.7 -5.4,9.5 -7,15.3 -6.5,24.1 0.5,11.4 2.9,15.3 18.4,30.7 13.3,13.2 18.5,19.9 24.5,31.5 l 3.3,6.5 1.3,-6.5 c 2,-9.7 2.8,-28.6 1.5,-34.6 -1.9,-8.9 -5.3,-16.4 -10.3,-23 -2.7,-3.6 -5.6,-7.8 -6.4,-9.4 -7.6,-14.7 4.8,-30 24.2,-30 h 5.3 v -27 c 0,-14.9 -0.2,-27 -0.4,-27 -0.1,0 -2.5,2.8 -5.2,6.2 z"
     id="path118"
     style="fill:#000000;stroke:none;stroke-width:0.1" />
  <path
     d="m 489.2,487.4 c -17.4,27 -26.4,63.3 -24.8,100.1 0.9,21 2.9,33.6 7.2,45.2 5.8,15.7 11.1,24.9 19.1,33.4 12.3,12.9 24.1,17.6 41.7,16.6 5.4,-0.4 10.1,-0.8 10.3,-1.1 0.3,-0.2 -3.6,-8 -8.6,-17.3 -24.1,-44.8 -29,-60.4 -27.7,-87.6 2.3,-49.1 1.9,-58.2 -3.5,-73.9 -2.3,-6.7 -8.3,-19.3 -9.6,-20.1 -0.5,-0.3 -2.3,1.8 -4.1,4.7 z"
     id="path120"
     style="fill:#000000;stroke:none;stroke-width:0.1" />
  <path
     d="m 702,778.7 c -1.9,0.2 -8.2,1.2 -14.1,2.3 -50.2,9.4 -82.2,42.4 -91.5,94.5 -2.4,13.5 -2.4,43 0,57 7.3,43.3 33.8,76.6 70.9,89 35.1,11.7 83.5,10.8 113.1,-2.2 15.7,-6.8 32.3,-19.6 42.2,-32.4 9.4,-12.2 16.6,-28.7 20.6,-47.1 2,-9.1 2.2,-13.2 2.3,-36.3 0,-23.6 -0.2,-27 -2.3,-36.5 -5.2,-23.7 -15.1,-41.9 -30.9,-57.1 -18,-17.3 -38.6,-26.5 -68.1,-30.4 -10.1,-1.3 -33,-1.8 -42.2,-0.8 z m 33.5,57.8 c 17.5,4.6 29.2,18.5 33.7,40.4 1.7,8.4 1.9,12.2 1.5,29.6 -0.7,27.1 -3.5,38.9 -11.9,50.1 -12.4,16.5 -40.2,22 -60.8,12.1 -13.6,-6.6 -22.3,-19 -26.2,-37.6 -3,-13.7 -3,-40.5 0,-54.2 4.5,-21.6 14.9,-34.5 32,-40 7.3,-2.3 23.4,-2.5 31.7,-0.4 z"
     id="path122"
     style="fill:#000000;stroke:none;stroke-width:0.1" />
  <path
     d="m 131,904 v 122 l 96.3,-0.2 96.2,-0.3 0.3,-29.8 L 324,966 H 265 206 V 874 782 H 168.5 131 Z"
     id="path124"
     style="fill:#bb1219;stroke:none;stroke-width:0.1;fill-opacity:1" />
  <path
     d="m 358,904 v 122 H 460.5 563 V 998.5 971 l -64.7,-0.2 -64.8,-0.3 -0.3,-23.8 L 433,923 H 491.5 550 V 898 873 H 491.5 433 V 853.5 834 h 63 63 V 808 782 H 458.5 358 Z"
     id="path126"
     style="fill:#000000;stroke:none;stroke-width:0.1" />
  <path
     d="m 888,904 v 122 l 35.3,-0.2 35.2,-0.3 0.5,-66.2 0.5,-66.2 8.5,12.4 c 4.7,6.8 14.4,21 21.5,31.5 7.2,10.5 19.7,28.9 27.9,40.8 8.2,11.9 18.9,27.7 23.8,34.9 l 8.9,13.3 h 35.5 35.4 V 904 782 h -35.5 -35.5 v 67.2 c 0,56.9 -0.2,67 -1.4,65.8 -0.7,-0.8 -7.4,-10.5 -14.8,-21.5 -7.5,-11 -17.9,-26.3 -23.1,-34 -5.3,-7.7 -13.5,-19.9 -18.3,-27 -4.9,-7.2 -14.6,-21.4 -21.7,-31.8 L 957.9,782 h -35 -34.9 z"
     id="path128"
     style="fill:#000000;stroke:none;stroke-width:0.1" />
  <path
     d="m 131,1135 v 39 h 6.5 6.5 l 0.2,-17.5 0.3,-17.5 10.5,7.2 c 5.8,3.9 17.4,11.8 25.7,17.5 l 15.3,10.4 9.7,-0.3 9.7,-0.3 -30.2,-19.9 c -16.6,-11 -30.2,-20.2 -30.2,-20.5 0,-0.4 4,-3.1 8.8,-6.3 4.8,-3.1 9.7,-6.5 11,-7.5 1.2,-1 9.4,-6.5 18.2,-12.3 l 16,-10.5 -8.4,-0.3 -8.5,-0.3 -9.8,6.8 c -10.9,7.4 -21.9,15.1 -30.4,21.3 -3.1,2.2 -6.2,4 -6.8,4 -0.8,0 -1.1,-4.9 -1.1,-16 v -16 h -6.5 -6.5 z"
     id="path130"
     style="fill:#4d4d4d;stroke:none;stroke-width:0.1" />
  <path
     d="m 424.5,1099.2 c 2.5,3 13.4,15.4 16,18.2 0.6,0.6 4.4,4.9 8.5,9.6 4.1,4.7 8.3,9.2 9.3,10.1 1.5,1.4 1.7,3.8 1.7,19.3 v 17.7 l 6.3,-0.3 6.2,-0.3 0.5,-17.6 0.5,-17.6 4.4,-4.9 c 2.5,-2.7 4.8,-5.1 5.1,-5.4 0.3,-0.3 1.8,-2.1 3.4,-4 3.2,-3.9 12.1,-14 19.5,-22.1 l 5,-5.4 -7.6,-0.3 c -6.8,-0.3 -7.7,-0.1 -9.1,1.9 -0.9,1.3 -2.6,3.4 -3.8,4.8 -2.1,2.3 -6.9,8.2 -17.4,21 -1.9,2.4 -3.6,4.7 -3.8,5.2 -0.5,1.1 -4.2,1.2 -4.2,0 0,-0.4 -1.2,-2.1 -2.7,-3.8 -1.6,-1.6 -8,-8.8 -14.3,-16.1 L 436.6,1096 h -7.4 -7.4 z"
     id="path132"
     style="fill:#4d4d4d;stroke:none;stroke-width:0.1" />
  <path
     d="m 738.4,1098 c -4.8,3.1 -5.9,6.9 -5.9,20 0,10.2 0.3,11.9 2.3,15.2 1.3,2.1 3.6,4.1 5.4,4.7 1.9,0.7 13.5,1.1 30.9,1.1 H 799 v 12 11.9 l -28.5,0.3 c -15.7,0.2 -28.8,0.2 -29.3,0.1 -0.4,-0.2 -0.5,-3 -0.4,-6.4 l 0.4,-6.1 -3.4,0.7 c -5.9,1.1 -8.8,2.7 -8.8,4.6 0,5.3 2.3,11.8 5.1,14.5 l 3,2.9 31,0.3 c 29.8,0.3 31.2,0.2 35.4,-1.8 5.1,-2.5 6.4,-5.2 7.2,-15.6 0.8,-10.5 -0.4,-19.5 -3,-22.6 -4.9,-5.6 -6.2,-5.8 -36.2,-5.8 H 744 v -11 -11 h 27.5 27.5 v 5.5 c 0,3 0.4,5.5 0.8,5.5 0.5,0 2.9,-0.7 5.5,-1.6 l 4.6,-1.5 -0.4,-4.4 c -0.4,-5.4 -2.8,-9.7 -6.5,-11.9 -2.4,-1.4 -6.8,-1.6 -32.2,-1.6 -27.6,0 -29.5,0.1 -32.4,2 z"
     id="path134"
     style="fill:#4d4d4d;stroke:none;stroke-width:0.1" />
  <path
     d="m 1045.1,1129.7 c -0.1,18.6 0.2,36.2 0.5,39 l 0.6,5.3 h 37.5 37.4 l -0.3,-5.3 -0.3,-5.2 -31.3,-0.3 -31.3,-0.2 0.3,-12.3 0.3,-12.2 18.8,-0.3 18.7,-0.2 v -5 -5 h -19 -19 v -11 -11 h 31 31 v -5 -5 h -37.4 -37.4 z"
     id="path136"
     style="fill:#4d4d4d;stroke:none;stroke-width:0.1" />
  <path
     style="fill:#bb1219;fill-opacity:1;stroke-width:3.26865"
     d="M 1209.2976,580.11178 C 1154.9766,566.9225 1105.2464,533.91277 1017.9316,453.08746 963.45749,402.66211 935.30369,383.46893 858.40105,344.33132 l -58.80788,-29.92875 24.39615,-7.66069 c 20.32737,-6.38304 30.93789,-7.60209 63.61992,-7.30931 34.81012,0.31185 42.22706,1.44347 65.91383,10.05669 42.77024,15.55254 60.91273,28.469 118.66883,84.48594 29.7157,28.82089 62.1185,59.16148 72.0061,67.42354 31.1423,26.02232 88.2249,61.72837 135.2513,84.60195 50.4753,24.55107 50.4259,24.42158 13.0528,34.15601 -22.9418,5.9756 -58.4876,5.95641 -83.2045,-0.0449 z"
     id="path989"
     transform="scale(0.75000002)" />
  <path
     style="fill:#bb1219;fill-opacity:1;stroke-width:3.26865"
     d="m 1238.8963,454.74409 c -29.2854,-9.37324 -55.6024,-25.12444 -105.1942,-62.96067 C 1005.5749,294.02811 974.1404,276.74916 908.54843,268.0205 c -39.99448,-5.32228 -89.28404,2.50384 -135.34183,21.48935 -10.96972,4.52184 30.97525,-40.83772 56.78392,-61.4065 79.8913,-63.67106 161.03386,-66.31599 248.09358,-8.08688 35.8925,24.00633 66.6209,56.53145 106.1126,112.31691 19.3026,27.26667 42.2957,56.96776 51.0957,66.00244 19.827,20.3556 50.9838,40.7734 73.3615,48.07555 22.876,7.46476 24.785,8.90726 15.2867,11.55095 -16.5266,4.59988 -66.5295,2.70769 -85.0443,-3.21823 z"
     id="path991"
     transform="scale(0.75000002)" />
  <path
     style="fill:#bb1219;fill-opacity:1;stroke-width:3.26865;stroke:none"
     d="m 429.99868,702.33631 c -23.74927,-5.43357 -48.155,-20.01886 -58.7231,-35.09389 -9.77748,-13.94729 -9.91848,-14.73634 -9.91848,-55.50597 v -41.35757 l -23.60119,-12.36689 c -21.62438,-11.3311 -23.91236,-13.52129 -27.31645,-26.14918 -4.02639,-14.93641 -1.8896,-44.41333 4.04505,-55.80126 2.00944,-3.85589 11.2859,-15.83607 20.61434,-26.62261 9.32845,-10.78653 41.40511,-52.20066 71.28147,-92.0314 29.87636,-39.83074 57.47059,-74.62583 61.32052,-77.32242 5.24727,-3.67534 7.2138,-8.87426 7.85434,-20.7646 0.99835,-18.53202 6.4012,-29.97879 23.53576,-49.86405 35.62899,-41.34872 134.71189,-94.76739 197.30246,-106.37189 11.04231,-2.04727 10.87175,-1.79887 -4.90297,7.14088 -28.43671,16.11548 -45.18316,28.98663 -65.56034,50.38903 -23.91186,25.11489 -36.19523,42.74182 -54.63812,78.407 l -13.97876,27.03238 -19.53053,5.97973 c -10.74179,3.28884 -27.61323,7.55168 -37.49209,9.47296 -9.87885,1.92128 -20.50308,4.85343 -23.60939,6.51588 -4.91908,2.63261 -126.76437,161.12739 -126.76437,164.89346 0,0.78431 3.82266,1.42601 8.49479,1.42601 12.25867,0 28.03088,8.33979 40.83321,21.59112 l 11.14197,11.53276 -29.41782,-2.25314 c -16.17981,-1.23921 -30.27609,-2.4408 -31.32508,-2.67019 -1.04898,-0.22946 -8.03572,5.09497 -15.52607,11.83188 -9.76256,8.78053 -13.60618,14.79654 -13.57419,21.2462 0.0878,17.70617 3.42511,22.4442 22.25179,31.59151 10.20892,4.9602 25.18068,13.19997 33.27058,18.31063 26.77771,16.91633 48.5119,23.82837 74.01812,23.53975 21.05289,-0.23828 24.67627,0.70809 36.77228,9.60358 7.59887,5.58827 13.41818,12.58037 13.41818,16.12237 0,8.2907 -1.80956,7.94036 -15.87287,-3.07312 -10.78671,-8.44742 -15.07212,-9.51408 -45.41426,-11.3035 -18.427,-1.08676 -33.50363,-1.65825 -33.50363,-1.27003 0,0.38822 -4.41267,13.67951 -9.80594,29.53618 -5.39327,15.85666 -9.80594,31.63252 -9.80594,35.05744 0,6.51638 19.3854,18.0091 43.61437,25.857 l 12.56223,4.06894 41.37044,-40.39499 c 22.75375,-22.21725 48.35718,-44.40375 56.89652,-49.30332 l 15.52607,-8.9083 v -26.03674 c 0,-14.32023 1.3971,-26.90021 3.10465,-27.95552 5.74718,-3.55198 9.96994,10.75175 9.96994,33.77107 0,25.93616 -1.06639,27.61915 -26.95135,42.53493 -9.44646,5.44335 -34.80308,27.61853 -56.34805,49.27816 -21.54497,21.65962 -39.93111,39.22363 -40.85808,39.0311 -0.92699,-0.19252 -7.56899,-1.69613 -14.76001,-3.34137 z"
     id="path993"
     transform="scale(0.75000002)" />
  <path
     style="fill:#bb1219;fill-opacity:1;stroke-width:3.26865"
     d="m 469.60162,372.4808 c 8.53701,-10.86625 20.30293,-25.20744 26.14649,-31.8693 l 10.62465,-12.11249 15.70263,15.52607 15.70262,15.52608 -11.39726,0.0183 c -18.45642,0.0294 -33.16615,5.6174 -51.50448,19.56553 -9.47469,7.20645 -18.02991,13.10263 -19.0116,13.10263 -0.98169,0 5.19993,-8.89057 13.73695,-19.75682 z"
     id="path995"
     transform="scale(0.75000002)" />
  <path
     style="fill:#bb1219;fill-opacity:1;stroke-width:3.26865"
     d="m 644.07209,210.80006 c -5.76403,-6.94523 -1.98993,-26.02688 8.19044,-41.41045 10.23334,-15.46362 36.27476,-32.65909 63.19324,-41.72727 26.85004,-9.04512 30.0576,-8.47315 14.93168,2.66262 -17.93198,13.20161 -27.72052,24.57092 -45.38929,52.71926 -8.46341,13.48317 -17.73282,26.35347 -20.59868,28.60066 -7.01209,5.49836 -15.35064,5.1518 -20.32739,-0.84482 z"
     id="path997"
     transform="scale(0.75000002)" />
  <path
     style="fill:#bb1219;fill-opacity:1;stroke-width:3.26865"
     d="m 740.52013,225.6869 c -12.55307,-5.19229 -22.05928,-18.81254 -22.40783,-32.10534 -0.85091,-32.45127 37.51427,-55.15532 115.42761,-68.30867 34.71934,-5.86133 120.97373,-7.6366 152.12874,-3.13108 l 19.61185,2.83619 -49.02967,12.36955 c -85.52118,21.57586 -125.05372,39.00422 -175.4415,77.34535 -18.23305,13.87391 -27.32712,16.35547 -40.2892,10.994 z"
     id="path999"
     transform="scale(0.75000002)" />
  <path
     style="fill:#bb1219;fill-opacity:1;stroke-width:3.26865"
     d="m 887.60924,916.56993 c -42.89523,-50.05835 -51.68627,-69.89508 -71.57742,-161.5125 -26.07317,-120.09136 -30.35524,-131.07516 -80.09326,-205.4442 -18.42896,-27.55526 -32.72851,-50.87917 -31.77677,-51.8309 0.95174,-0.95174 14.48275,8.37413 30.06892,20.72415 42.45458,33.63975 43.87886,34.66622 43.87886,31.62302 0,-1.54938 -6.43313,-17.48415 -14.29584,-35.41058 -19.34211,-44.09862 -39.47408,-100.91222 -49.77178,-140.45885 -10.44898,-40.12765 -12.53799,-95.38359 -4.18567,-110.71413 5.02517,-9.2236 5.15094,-8.86129 7.26567,20.93119 1.18359,16.67449 2.15198,38.1429 2.15198,47.70758 0,38.83228 53.19484,143.1961 138.90244,272.51496 85.5186,129.03369 166.52793,226.50618 228.00313,274.33913 18.0995,14.08287 22.0634,18.84771 22.0634,26.52095 0,12.90675 -6.0198,24.9137 -15.6565,31.22787 -8.738,5.7254 -78.8611,13.11764 -82.2499,8.67061 -10.1641,-13.33794 -89.50937,-135.48022 -107.7618,-165.88595 -12.95021,-21.57307 -24.92475,-40.62111 -26.6101,-42.32898 -11.02179,-11.16906 9.51599,109.54818 29.92089,175.86938 5.45088,17.71682 9.4522,32.60851 8.89181,33.09273 -0.56038,0.48422 -12.78601,-12.85176 -27.16806,-29.63548 z"
     id="path1001"
     transform="scale(0.75000002)" />
  <path
     style="fill:#bb1219;fill-opacity:1;stroke-width:3.26865"
     d="m 799.00865,916.37293 c -64.47974,-48.06029 -96.07796,-112.25462 -96.07796,-195.19015 0,-27.68835 -14.44635,-70.49202 -34.87457,-103.33128 -33.31092,-53.54876 -38.3611,-67.97874 -42.30795,-120.88721 l -2.30672,-30.92217 12.77828,10.25479 c 42.43441,34.05432 91.13263,93.5627 113.33071,138.48813 23.62216,47.80756 25.17174,55.51399 29.1913,145.17536 l 3.66337,81.71617 12.94226,29.41782 c 7.11824,16.1798 15.66026,35.66911 18.98227,43.30957 3.32201,7.64046 4.83292,13.89175 3.35757,13.89175 -1.47534,0 -9.88069,-5.36526 -18.67856,-11.92278 z"
     id="path1003"
     transform="scale(0.75000002)" />
  <path
     style="fill:#bb1219;fill-opacity:1;stroke-width:3.26865"
     d="m 678.38781,902.58786 c -38.45738,-17.47081 -59.9482,-71.80303 -56.26044,-142.23531 1.99696,-38.13974 7.79402,-61.84768 22.49594,-92.00046 11.62606,-23.84436 13.99002,-23.74688 23.51218,0.9695 4.22939,10.97808 5.37738,25.77221 5.37738,69.29786 0,30.43698 1.53583,62.50129 3.41296,71.25402 1.87712,8.75273 12.17336,33.98624 22.88052,56.07447 10.70717,22.08824 19.46758,40.73991 19.46758,41.44816 0,3.79183 -29.62403,0.30803 -40.88612,-4.80824 z"
     id="path1005"
     transform="scale(0.75000002)" />
  <path
     style="fill:#bb1219;fill-opacity:1;stroke-width:3.26865"
     d="m 596.59384,761.26128 c -1.19938,-3.77891 -12.11643,-17.38465 -24.2601,-30.23499 -24.98105,-26.43472 -29.59698,-33.76625 -29.49496,-46.84705 0.15462,-19.82323 14.31909,-41.4821 55.43687,-84.76843 l 22.93887,-24.14867 v 30.67396 30.67396 l -14.10796,3.55243 c -28.98683,7.29897 -33.56665,25.89693 -14.15991,57.50133 11.04445,17.98618 11.92464,21.30359 11.92464,44.94389 0,24.58208 -3.7288,32.98509 -8.27745,18.65357 z"
     id="path1007"
     transform="scale(0.75000002)" />
  <path
     style="fill:#bb1219;fill-opacity:1;stroke-width:3.26865"
     d="m 1126.2205,868.07213 c -26.3354,-7.47977 -34.2728,-11.15272 -57.5658,-26.63783 C 1013.0716,804.4827 957.5384,725.06815 914.53891,621.0429 905.53242,599.25424 876.80762,547.46769 835.87244,479.21895 800.40857,420.09221 772.00846,371.10001 772.76108,370.34739 c 3.36226,-3.36226 85.92817,63.03836 122.08329,98.18102 64.62537,62.81566 101.11675,113.04854 146.41063,201.5442 15.1821,29.66297 34.2396,62.33832 42.35,72.61191 29.6195,37.51923 82.0159,70.41613 134.2841,84.30974 14.3015,3.80154 28.1809,7.64122 30.8433,8.53268 3.2598,1.09149 0.057,4.5911 -9.806,10.71622 -35.6133,22.1156 -80.8492,30.87691 -112.7059,21.82897 z"
     id="path1009"
     transform="scale(0.75000002)" />
  <path
     style="fill:#bb1219;fill-opacity:1;stroke-width:3.26865"
     d="M 1195.9432,773.42961 C 1153.0159,755.77323 1124.5263,726.32746 1079.7963,653.38492 1029.7099,571.70736 967.53712,485.89919 912.297,422.20958 c -12.98932,-14.97614 -22.85112,-27.99517 -21.91513,-28.93116 2.15695,-2.15695 123.13653,102.814 212.95803,184.77842 81.392,74.27223 94.8942,82.61515 137.3073,84.84127 33.9032,1.77946 56.622,-4.74447 86.5528,-24.85442 11.7087,-7.86681 22.5524,-15.09638 24.0971,-16.0657 3.277,-2.05627 0.47,17.95927 -6.7449,48.09462 -11.9462,49.89769 -44.6623,94.47376 -77.545,105.65607 -22.7332,7.7308 -48.723,6.88994 -71.064,-2.29907 z"
     id="path1011"
     transform="scale(0.75000002)" />
  <path
     style="fill:#bb1219;fill-opacity:1;stroke-width:3.26865"
     d="m 477.39406,1204.4964 v -161.7981 h 132.3802 132.3802 v 34.3208 34.3208 h -83.3505 -83.35049 v 27.7835 27.7835 h 78.44752 78.44752 v 31.0522 31.0521 h -78.44752 -78.44752 v 32.6865 32.6865 l 44.94389,0.013 c 24.71914,0.01 63.69776,0.9697 86.61914,2.1387 l 41.67525,2.1254 v 33.8163 33.8164 H 613.0429 477.39406 Z"
     id="path1013"
     transform="scale(0.75000002)" />
  <path
     style="fill:#bb1219;fill-opacity:1;stroke-width:3.26865"
     d="m 937.95279,1369.2568 c -90.68078,-7.6635 -143.64012,-68.956 -143.45167,-166.0237 0.16094,-82.8994 43.57615,-141.2416 118.19513,-158.8329 44.28912,-10.4411 108.13245,-3.173 140.92205,16.043 23.3162,13.6642 44.6935,37.4481 57.4983,63.9713 11.7108,24.2572 11.8469,25.0211 12.9512,72.6798 0.9829,42.4224 0.2693,50.7857 -5.9856,70.1469 -9.4842,29.3566 -20.2986,47.0664 -39.0193,63.8978 -34.7095,31.2069 -79.55215,43.3201 -141.11011,38.1178 z m 39.64104,-71.9301 c 20.42475,-4.3803 36.44017,-17.6134 43.90947,-36.2812 8.5548,-21.3803 10.4739,-75.1546 3.5341,-99.0265 -7.7501,-26.6593 -26.66924,-45.8407 -48.43312,-49.1044 -35.33081,-5.2982 -60.18583,5.65 -74.09235,32.6364 -7.20648,13.9845 -8.51577,21.2698 -9.45084,52.5871 -0.597,19.9944 0.50305,42.2527 2.44453,49.4629 6.78748,25.2067 25.17773,45.0256 46.43769,50.045 15.64522,3.6938 16.99417,3.6818 35.65052,-0.3193 z"
     id="path1015"
     transform="scale(0.75000002)" />
  <path
     style="fill:#bb1219;fill-opacity:1;stroke-width:3.26865"
     d="m 1186.6904,1204.4041 v -161.8902 l 44.5969,0.9094 44.5968,0.9094 60.6371,89.0496 c 39.739,58.3593 61.5268,87.6487 63.2185,84.9848 1.4197,-2.2356 2.6038,-42.6757 2.6314,-89.8668 l 0.05,-85.802 h 45.7611 45.761 v 161.7981 161.798 l -46.5782,-0.1544 -46.5782,-0.1543 -60.47,-88.9163 -60.4699,-88.9163 -2.0264,86.6192 c -1.1145,47.6405 -2.2177,87.7223 -2.4515,89.0706 -0.2338,1.3483 -20.2821,2.4515 -44.5518,2.4515 h -44.1268 z"
     id="path1017"
     transform="scale(0.75000002)" />
</svg>
