<?xml version="1.0" encoding="UTF-8" standalone="no"?>
<svg
   xmlns:dc="http://purl.org/dc/elements/1.1/"
   xmlns:cc="http://creativecommons.org/ns#"
   xmlns:rdf="http://www.w3.org/1999/02/22-rdf-syntax-ns#"
   xmlns:svg="http://www.w3.org/2000/svg"
   xmlns="http://www.w3.org/2000/svg"
   xmlns:sodipodi="http://sodipodi.sourceforge.net/DTD/sodipodi-0.dtd"
   xmlns:inkscape="http://www.inkscape.org/namespaces/inkscape"
   viewBox="0 0 228.66 39.08"
   version="1.1"
   id="svg32"
   sodipodi:docname="navbar-logo (copia 1).svg"
   inkscape:version="1.0.2 (1.0.2+r75+1)">
  <metadata
     id="metadata38">
    <rdf:RDF>
      <cc:Work
         rdf:about="">
        <dc:format>image/svg+xml</dc:format>
        <dc:type
           rdf:resource="http://purl.org/dc/dcmitype/StillImage" />
      </cc:Work>
    </rdf:RDF>
  </metadata>
  <defs
     id="defs36" />
  <sodipodi:namedview
     pagecolor="#ffffff"
     bordercolor="#666666"
     borderopacity="1"
     objecttolerance="10"
     gridtolerance="10"
     guidetolerance="10"
     inkscape:pageopacity="0"
     inkscape:pageshadow="2"
     inkscape:window-width="1280"
     inkscape:window-height="744"
     id="namedview34"
     showgrid="false"
     inkscape:zoom="3.478943"
     inkscape:cx="105.25564"
     inkscape:cy="53.97536"
     inkscape:window-x="0"
     inkscape:window-y="0"
     inkscape:window-maximized="1"
     inkscape:current-layer="svg32" />
  <style
     id="style2">.cls-1{fill:#fed136;}</style>
  <g
     id="g236"
     transform="matrix(1.9410365,0,0,1.9410365,77.307082,-89.406159)"
     style="fill:#ffffff">
    <path
       d="m 9.1886537,62.366295 v 2.272176 H 9.5673498 9.946046 l 0.011652,-1.019566 0.017478,-1.019566 0.61174,0.419478 c 0.337914,0.227218 1.013741,0.687479 1.497306,1.019567 l 0.891393,0.605914 0.565131,-0.01748 0.565131,-0.01748 -1.75948,-1.159393 c -0.967132,-0.64087 -1.759481,-1.176871 -1.759481,-1.194349 0,-0.0233 0.233044,-0.180609 0.512697,-0.367044 0.279652,-0.180609 0.565131,-0.378696 0.64087,-0.436957 0.06991,-0.05826 0.547653,-0.378696 1.060349,-0.71661 l 0.932175,-0.611739 -0.489392,-0.01748 -0.495218,-0.01748 -0.570957,0.396174 c -0.635044,0.431131 -1.275915,0.879741 -1.771133,1.240958 -0.180609,0.128175 -0.361217,0.233044 -0.396174,0.233044 -0.046609,0 -0.064087,-0.285478 -0.064087,-0.932175 V 60.094118 H 9.5673498 9.1886537 Z"
       id="path130"
       style="fill:#ffffff;stroke:none;stroke-width:0.00582609" />
    <path
       d="m 26.28824,60.280553 c 0.145652,0.174783 0.780696,0.897219 0.932175,1.060349 0.03496,0.03496 0.256348,0.285479 0.495218,0.559305 0.23887,0.273827 0.483565,0.536001 0.541826,0.588436 0.08739,0.08156 0.09904,0.221391 0.09904,1.124436 v 1.031219 l 0.367044,-0.01748 0.361218,-0.01748 0.02913,-1.025393 0.02913,-1.025392 0.256348,-0.285479 c 0.145652,-0.157304 0.279652,-0.29713 0.297131,-0.314609 0.01748,-0.01748 0.104869,-0.122348 0.198087,-0.233044 0.186435,-0.227217 0.704957,-0.815653 1.136088,-1.287566 l 0.291305,-0.314609 -0.442783,-0.01748 c -0.396175,-0.01748 -0.44861,-0.0058 -0.530175,0.110696 -0.05243,0.07574 -0.151478,0.198087 -0.221391,0.279653 -0.122348,0.134 -0.402001,0.477739 -1.013741,1.223479 -0.110696,0.139827 -0.209739,0.273827 -0.221391,0.302957 -0.02913,0.06409 -0.244696,0.06991 -0.244696,0 0,-0.0233 -0.06991,-0.122348 -0.157305,-0.221391 -0.09322,-0.09322 -0.466087,-0.512697 -0.833131,-0.938001 L 26.993192,60.094114 H 26.562061 26.13093 Z"
       id="path132"
       style="fill:#ffffff;stroke:none;stroke-width:0.00582609" />
    <path
       d="m 44.576349,60.21064 c -0.279653,0.180609 -0.34374,0.402001 -0.34374,1.165219 0,0.594261 0.01748,0.693305 0.134,0.885566 0.07574,0.122348 0.20974,0.23887 0.314609,0.273827 0.110696,0.04078 0.786523,0.06409 1.800263,0.06409 h 1.625481 v 0.699131 0.693305 l -1.660437,0.01748 c -0.914697,0.01165 -1.677915,0.01165 -1.707046,0.0058 -0.0233,-0.01165 -0.02913,-0.174782 -0.0233,-0.37287 l 0.0233,-0.355391 -0.198087,0.04078 c -0.343739,0.06409 -0.512696,0.157305 -0.512696,0.268001 0,0.308783 0.134,0.687479 0.297131,0.844783 l 0.174782,0.168957 1.80609,0.01748 c 1.736176,0.01748 1.817741,0.01165 2.062437,-0.104869 0.297131,-0.145653 0.37287,-0.302957 0.419479,-0.908871 0.04661,-0.61174 -0.02331,-1.136088 -0.174783,-1.316697 -0.285479,-0.326262 -0.361218,-0.337914 -2.109046,-0.337914 H 44.90261 v -0.64087 -0.64087 h 1.602176 1.602176 v 0.320435 c 0,0.174783 0.0233,0.320435 0.04661,0.320435 0.02913,0 0.168957,-0.04078 0.320436,-0.09322 l 0.268,-0.08739 -0.0233,-0.256348 c -0.02331,-0.314609 -0.163131,-0.565131 -0.378697,-0.693305 -0.139826,-0.08157 -0.396174,-0.09322 -1.876002,-0.09322 -1.608002,0 -1.718698,0.0058 -1.887654,0.116522 z"
       id="path134"
       style="fill:#ffffff;stroke:none;stroke-width:0.00582609" />
    <path
       d="m 62.444979,62.057512 c -0.0058,1.083653 0.01165,2.109046 0.02913,2.272176 l 0.03496,0.308783 h 2.184785 2.178959 l -0.01748,-0.308783 -0.01748,-0.302956 -1.823568,-0.01748 -1.823567,-0.01165 0.01748,-0.716609 0.01748,-0.710784 1.095305,-0.01748 1.08948,-0.01165 v -0.291305 -0.291305 h -1.106958 -1.106958 v -0.64087 -0.64087 h 1.806089 1.806089 v -0.291305 -0.291305 h -2.178959 -2.178959 z"
       id="path136"
       style="fill:#ffffff;stroke:none;stroke-width:0.00582609" />
  </g>
  <g
     id="g272"
     transform="translate(18.203625,0.84950609)">
    <path
       d="M 32.056073,0.63882887 C 31.292854,0.77865513 29.987809,1.1806556 29.113895,1.5535256 28.968243,1.6117866 28.746851,1.7108302 28.618677,1.763265 28.117633,1.9671783 26.579544,2.7770054 25.985283,3.1498754 24.225802,4.2451811 23.002323,5.4103999 22.501279,6.4649229 22.279887,6.9368365 22.163365,7.5660546 22.233278,7.9389247 l 0.05244,0.250522 -0.268,0.1281741 c -0.23887,0.1165218 -0.425305,0.3437395 -1.742002,2.1090462 -0.815654,1.089479 -1.608002,2.149828 -1.765307,2.359568 -0.16313,0.209739 -0.646696,0.862262 -1.089479,1.456523 -0.442784,0.594262 -1.06035,1.345828 -1.386611,1.677915 -0.862262,0.885567 -1.072001,1.427393 -1.077827,2.744091 0,0.728261 0.104869,1.25261 0.302957,1.462349 0.05826,0.06409 0.553479,0.337914 1.095305,0.61174 0.541827,0.268 0.996262,0.512696 1.007915,0.536001 0.01748,0.02913 -0.0233,0.425305 -0.08739,0.891392 -0.157304,1.171045 -0.128174,2.149829 0.08739,2.674177 0.308783,0.763219 0.815653,1.287567 1.631306,1.689568 0.512696,0.250522 1.351654,0.512696 1.806089,0.570957 l 0.285479,0.03496 1.695393,-1.695393 1.701219,-1.695393 0.844784,-0.495218 c 0.466088,-0.273827 0.903045,-0.536001 0.978784,-0.588436 0.128174,-0.09322 0.128174,-0.110696 0.128174,-1.392436 0,-1.182697 -0.01165,-1.305045 -0.10487,-1.392437 -0.134,-0.122348 -0.297131,-0.122348 -0.448609,-0.0058 -0.10487,0.08157 -0.116522,0.174783 -0.145652,1.22348 l -0.02913,1.130262 -0.786522,0.466088 -0.786523,0.460261 -1.642959,1.642959 -1.642958,1.637132 -0.308783,-0.06991 c -0.751566,-0.174783 -1.811915,-0.687479 -2.07409,-1.002088 -0.05243,-0.06991 0.02913,-0.37287 0.402001,-1.508959 0.262174,-0.780696 0.495218,-1.439045 0.512696,-1.468175 0.0233,-0.02331 0.20974,0.0058 0.419479,0.06991 0.769044,0.23887 1.328349,0.273826 1.870176,0.110696 0.297131,-0.08739 0.436957,-0.03496 0.804001,0.308783 0.37287,0.337913 0.71661,0.576783 0.844784,0.576783 0.09322,0 0.16313,-0.128174 0.227217,-0.442783 0.03496,-0.145653 0.01748,-0.186435 -0.09322,-0.23887 -0.07574,-0.03496 -0.314609,-0.221392 -0.530175,-0.413653 -0.635044,-0.559305 -0.862262,-0.623392 -1.613828,-0.419479 -0.320435,0.08157 -0.687479,0.04078 -1.340001,-0.151478 -0.565131,-0.168957 -1.590524,-0.646696 -1.841046,-0.856436 -0.09322,-0.07574 -0.64087,-0.378696 -1.217654,-0.670001 -0.582609,-0.285478 -1.089479,-0.565131 -1.124436,-0.61174 -0.09322,-0.110695 -0.209739,-1.11861 -0.145652,-1.223479 0.0233,-0.04078 0.291304,-0.297131 0.594261,-0.565131 l 0.541827,-0.483566 1.147741,0.09904 c 0.629218,0.05243 1.25261,0.110696 1.392436,0.128175 0.151479,0.0233 0.244696,0.01165 0.244696,-0.02331 0,-0.122348 -0.530174,-0.704957 -0.885566,-0.972958 -0.600088,-0.454435 -0.891393,-0.576783 -1.340002,-0.582609 -0.378696,0 -0.471913,-0.03496 -0.332087,-0.122348 0.03496,-0.0233 0.996262,-1.287567 2.138176,-2.814003 3.332526,-4.4686144 3.000439,-4.0491357 3.379135,-4.2355707 0.23887,-0.1165219 0.466087,-0.1747828 0.821479,-0.2039133 0.361218,-0.02913 0.780697,-0.1340001 1.613828,-0.4078266 L 26.0785,7.8690115 26.177544,7.6010112 c 0.186435,-0.495218 0.844783,-1.7594804 1.22348,-2.3420898 0.524348,-0.8098271 0.978783,-1.3924365 1.52061,-1.9400893 1.066175,-1.0836535 1.899307,-1.6895673 3.332526,-2.42948119 0.617566,-0.31460907 0.652522,-0.33791345 0.436957,-0.33208736 -0.122348,0 -0.407827,0.0407827 -0.635044,0.0815653 z"
       id="path98"
       style="fill:#000000;stroke:none;stroke-width:0.00582609" />
    <path
       d="M 34.095206,1.3962211 C 32.539638,1.640917 31.129724,2.3167439 30.261636,3.2197885 29.638244,3.872311 29.323635,4.79866 29.527548,5.3754433 c 0.08157,0.2388698 0.297131,0.37287 0.605914,0.37287 0.477739,0 0.64087,-0.1747828 1.427393,-1.4681757 0.885566,-1.4623496 1.549741,-2.1323504 2.709133,-2.7499163 0.227218,-0.122348 0.384523,-0.2155655 0.349566,-0.2155655 -0.02913,0.00583 -0.268,0.040783 -0.524348,0.081565 z"
       id="path100"
       style="fill:#000000;stroke:none;stroke-width:0.00582609" />
    <path
       d="m 40.911736,1.3437862 c -0.978784,0.046609 -2.109046,0.1573046 -2.971308,0.2913047 -3.29757,0.5010441 -5.126963,1.5613932 -5.121137,2.9654819 0,0.7166096 0.326261,1.2467841 0.938001,1.5264366 0.378696,0.1747828 1.037045,0.2971308 1.147741,0.2213916 0.04661,-0.034957 0.233043,-0.1922611 0.425305,-0.3495657 1.485653,-1.2584363 3.367482,-2.2838288 5.48818,-3.0004384 1.08948,-0.3670439 3.344178,-0.9380011 4.783223,-1.2060014 L 45.863915,1.7399606 45.397828,1.640917 C 44.419044,1.4311777 42.199302,1.2855253 40.911736,1.3437862 Z"
       id="path102"
       style="fill:#000000;stroke:none;stroke-width:0.00582609" />
    <path
       d="M 42.251737,3.9888329 C 41.010779,4.1869201 39.635821,4.7578773 38.464776,5.5677044 37.812254,6.0221397 36.7286,6.9776191 36.145991,7.6243156 35.50512,8.3292729 34.86425,9.1216217 34.899207,9.1565783 c 0.01165,0.011652 0.273826,-0.087391 0.570957,-0.2155655 1.765306,-0.7690444 3.687917,-1.11861 5.336702,-0.9846099 2.674177,0.2155655 4.858962,1.2875668 8.511923,4.1714831 0.291305,0.233044 0.780697,0.617566 1.077828,0.85061 2.74409,2.173133 4.183135,2.994612 5.925137,3.396613 0.856436,0.192261 1.934263,0.198087 2.796525,0 0.337914,-0.07574 0.704958,-0.174783 0.815653,-0.221392 l 0.203914,-0.08739 -0.332088,-0.06991 C 58.931844,15.809978 57.877321,15.367195 57.108277,14.871977 55.943058,14.114584 54.923492,12.995974 53.525229,10.951015 52.086184,8.8536214 51.620096,8.2593598 50.722878,7.3970979 48.963397,5.7017046 46.965047,4.5481379 45.019132,4.0995287 44.448175,3.9655285 42.822694,3.9014415 42.251737,3.9888329 Z"
       id="path104"
       style="fill:#000000;stroke:none;stroke-width:0.00582609" />
    <path
       d="m 32.615378,7.467011 c -0.291305,0.5884355 -0.37287,1.0312187 -0.37287,2.0566112 0,1.0370448 0.122348,1.8760018 0.483565,3.3033958 0.466088,1.835219 1.485654,4.602614 2.499395,6.804877 0.09322,0.192261 0.186435,0.413653 0.209739,0.489392 l 0.04078,0.139826 -0.139826,-0.110695 c -0.08157,-0.05826 -0.460262,-0.37287 -0.838958,-0.693306 -0.646696,-0.547652 -2.278003,-1.794436 -2.674177,-2.044959 -0.122348,-0.08157 -0.157305,-0.08739 -0.116522,-0.0233 0.06991,0.116522 2.843134,4.288005 3.1927,4.794875 0.402,0.594262 0.827305,1.503133 1.124436,2.406177 0.337913,1.031219 0.454435,1.514785 0.98461,4.136527 0.897218,4.451136 1.363306,5.523137 3.326699,7.684618 0.693305,0.763218 1.217654,1.404089 1.549741,1.893481 0.05244,0.08156 0.0058,-0.10487 -0.104869,-0.407827 -0.734088,-1.992524 -1.380785,-4.526875 -1.707046,-6.670878 -0.122348,-0.780696 -0.355392,-2.604264 -0.355392,-2.761568 0,-0.139826 0.07574,-0.03496 0.594262,0.868088 1.240958,2.138176 3.361656,5.453224 4.870614,7.626357 l 0.501045,0.716609 1.287566,-0.02913 c 1.817742,-0.04078 2.406177,-0.209739 2.84896,-0.838958 0.145653,-0.209739 0.174783,-0.314609 0.198087,-0.722435 l 0.02913,-0.471914 0.198087,-0.08739 c 0.116522,-0.04661 0.192261,-0.09322 0.174783,-0.110696 -0.01748,-0.01748 -0.110696,0.0058 -0.203913,0.05826 l -0.174783,0.08739 -0.03496,-0.198087 c -0.02913,-0.157304 -0.09322,-0.227218 -0.343739,-0.367044 -1.246784,-0.704957 -3.623831,-3.093656 -5.890181,-5.919311 -0.617566,-0.774871 -2.289655,-2.994613 -2.802351,-3.7287 -0.128175,-0.180609 -0.337914,-0.47774 -0.471914,-0.664175 -0.47774,-0.670001 -1.707046,-2.516873 -2.336264,-3.507309 -1.508958,-2.388698 -2.546003,-4.177309 -3.484004,-6.030007 -0.763218,-1.503132 -1.11861,-2.307133 -1.450697,-3.262613 l -0.23887,-0.699131 V 9.3488394 c -0.0058,-1.5206105 -0.02331,-1.8701762 -0.09322,-2.0391329 l -0.09322,-0.2039133 z"
       id="path106"
       style="fill:#000000;stroke:none;stroke-width:0.00582609" />
    <path
       d="m 39.193038,9.2090131 c -0.08157,0.011652 -0.396175,0.069913 -0.699131,0.1165219 -0.565132,0.099044 -2.155655,0.5826094 -2.155655,0.6583486 0,0.052434 -0.134,-0.017478 1.922611,0.9846104 2.668351,1.293392 4.07244,2.097393 5.406615,3.093655 0.646696,0.483566 0.990436,0.792349 2.994612,2.68583 3.478178,3.285917 6.216443,4.858962 8.902272,5.126963 1.141914,0.110695 2.417829,-0.07574 3.524787,-0.518523 0.681653,-0.273826 0.681653,-0.273826 0.407826,-0.390348 -1.171044,-0.489392 -3.390786,-1.573046 -3.769482,-1.83522 -0.08157,-0.06409 -0.168957,-0.110696 -0.180609,-0.110696 -0.06409,0 -1.11861,-0.658348 -1.905133,-1.182697 -1.712872,-1.14774 -3.128613,-2.336263 -4.456962,-3.740352 -2.033307,-2.155655 -2.74409,-2.784873 -3.961744,-3.518961 -0.903044,-0.547653 -2.074089,-1.007914 -3.11696,-1.2351317 -0.419479,-0.093218 -0.821479,-0.122348 -1.660437,-0.1398262 -0.605914,-0.011652 -1.171045,-0.011652 -1.25261,0.00583 z"
       id="path108"
       style="fill:#000000;stroke:none;stroke-width:0.00582609" />
    <path
       d="m 23.101366,11.079189 c -1.153566,1.456524 -2.283829,2.854786 -2.423655,3.000439 -0.273826,0.297131 -0.09904,0.221391 0.332087,-0.145653 1.829394,-1.538088 2.353742,-1.841045 3.239309,-1.89348 0.553479,-0.02913 0.815653,0.03496 1.28174,0.308783 0.314609,0.186435 0.250522,0.10487 -0.728261,-0.844784 -0.594262,-0.570957 -1.106958,-1.042871 -1.141915,-1.048697 -0.02913,0 -0.285478,0.279653 -0.559305,0.623392 z"
       id="path110"
       style="fill:#000000;stroke:none;stroke-width:0.00582609" />
    <path
       d="m 38.773559,11.830755 c 0.09904,0.128175 0.227218,0.273827 0.279653,0.320436 0.05243,0.04661 0.402,0.419478 0.77487,0.838957 3.577222,3.985048 6.595138,8.057488 9.036272,12.176537 1.083653,1.829393 1.409915,2.26635 2.446959,3.297569 3.093656,3.064525 6.717487,2.604264 8.442011,-1.066175 0.518522,-1.101132 0.792348,-2.17896 1.025392,-4.054962 0.0233,-0.209739 -0.01748,-0.233044 -0.180609,-0.08157 -0.221391,0.198087 -0.815653,0.64087 -1.246784,0.914697 -0.559305,0.361217 -1.130262,0.623392 -1.782785,0.827305 -0.477739,0.145652 -0.600087,0.157305 -1.479828,0.157305 -0.885566,0 -1.002088,-0.01165 -1.479827,-0.163131 -0.291305,-0.08739 -0.774871,-0.279653 -1.077828,-0.431131 -0.553479,-0.273826 -0.751566,-0.436957 -2.307133,-1.870176 -0.192261,-0.180609 -0.471914,-0.431131 -0.61174,-0.559305 -0.145652,-0.128174 -1.258436,-1.141915 -2.47609,-2.248873 -1.217654,-1.106957 -2.412003,-2.178959 -2.656699,-2.382872 -0.926349,-0.792349 -5.32505,-4.573484 -5.35418,-4.602614 -0.04078,-0.04078 -1.287567,-1.106958 -1.427393,-1.217654 -0.05826,-0.05243 -0.02913,0.01165 0.07574,0.145652 z"
       id="path112"
       style="fill:#000000;stroke:none;stroke-width:0.00582609" />
    <path
       d="m 34.887554,12.028843 c 0.116522,0.186435 1.054523,1.742002 1.130263,1.881828 0.03496,0.05826 1.165218,1.945915 2.511046,4.194788 2.289655,3.804439 2.47609,4.142353 2.732438,4.84731 1.270089,3.478178 3.338352,6.903921 5.354181,8.849837 2.109046,2.039133 4.212266,2.866438 6.455312,2.540177 0.530174,-0.07574 1.433219,-0.37287 1.99835,-0.652523 0.47774,-0.244696 1.485654,-0.868088 1.485654,-0.926349 0,-0.01748 -0.349566,-0.10487 -0.769044,-0.192261 -3.635483,-0.780697 -6.420356,-2.726612 -7.841923,-5.482354 -0.128174,-0.256349 -0.501044,-1.002089 -0.821479,-1.660437 -0.501044,-1.025393 -0.780697,-1.543915 -1.439045,-2.668351 -0.302957,-0.518523 -1.22348,-1.881829 -1.753655,-2.58096 C 42.286694,17.994763 40.0553,15.780847 37.555905,13.858236 36.804339,13.281453 35.441033,12.296843 34.96912,11.993886 L 34.794337,11.88319 Z"
       id="path114"
       style="fill:#000000;stroke:none;stroke-width:0.00582609" />
    <path
       d="m 28.787634,17.371371 c 0.122348,2.621742 0.402,3.618004 1.479828,5.260963 0.413653,0.635044 0.64087,1.002088 0.897218,1.450697 0.215566,0.384522 0.58261,1.334176 0.809827,2.097394 0.203914,0.699131 0.227218,0.844784 0.227218,1.427393 0.0058,3.56557 1.095306,6.17566 3.390787,8.115749 0.675827,0.570957 1.934263,1.415741 2.004176,1.345828 0.01165,-0.01748 -0.192261,-0.495218 -0.448609,-1.072002 -0.256348,-0.570957 -0.664175,-1.474001 -0.897219,-2.004176 l -0.425304,-0.961305 -0.06409,-1.340002 c -0.03496,-0.739914 -0.104869,-2.324612 -0.157304,-3.524787 -0.08739,-2.13235 -0.09322,-2.196437 -0.268,-2.767395 -0.74574,-2.464437 -2.196438,-4.829832 -4.200614,-6.851486 -0.862262,-0.868088 -2.202264,-2.033307 -2.34209,-2.033307 -0.0233,0 -0.02913,0.384522 -0.0058,0.856436 z"
       id="path116"
       style="fill:#000000;stroke:none;stroke-width:0.00582609" />
    <path
       d="m 28.496329,21.420506 c -0.157304,0.203913 -0.600087,0.693305 -0.990436,1.095306 -1.206001,1.246784 -1.52061,1.631306 -1.905132,2.312959 -0.31461,0.553479 -0.407827,0.891393 -0.378697,1.404089 0.02913,0.664175 0.168957,0.891392 1.072002,1.788611 0.77487,0.769044 1.077827,1.159392 1.427393,1.835219 l 0.192261,0.378696 0.07574,-0.378696 c 0.116522,-0.565131 0.163131,-1.666263 0.08739,-2.015828 -0.110695,-0.518523 -0.308782,-0.95548 -0.600087,-1.340002 -0.157305,-0.209739 -0.326261,-0.454435 -0.37287,-0.547653 -0.442783,-0.856436 0.279652,-1.747828 1.409915,-1.747828 h 0.308783 v -1.573045 c 0,-0.868088 -0.01165,-1.573046 -0.02331,-1.573046 -0.0058,0 -0.145652,0.163131 -0.302957,0.361218 z"
       id="path118"
       style="fill:#000000;stroke:none;stroke-width:0.00582609" />
    <path
       d="m 30.057722,24.63651 c -1.01374,1.573045 -1.538088,3.687918 -1.444871,5.83192 0.05243,1.22348 0.168957,1.957568 0.419479,2.633395 0.337913,0.914696 0.646696,1.450697 1.112784,1.945915 0.716609,0.751566 1.404089,1.025393 2.429481,0.967132 0.314609,-0.0233 0.588436,-0.04661 0.600088,-0.06409 0.01748,-0.01165 -0.20974,-0.466088 -0.501044,-1.007915 -1.404089,-2.61009 -1.689568,-3.51896 -1.613828,-5.103658 0.134,-2.860612 0.110695,-3.390787 -0.203914,-4.305483 -0.134,-0.390349 -0.483565,-1.124437 -0.559305,-1.171045 -0.02913,-0.01748 -0.134,0.104869 -0.23887,0.273826 z"
       id="path120"
       style="fill:#000000;stroke:none;stroke-width:0.00582609" />
    <path
       style="fill:#bb1219;fill-opacity:1;stroke-width:0.142826"
       d="M 54.397588,21.588524 C 52.023993,21.012209 49.850997,19.569825 46.035715,16.038106 43.65543,13.834735 42.425229,12.996075 39.064914,11.285929 L 36.495262,9.9781714 37.561269,9.6434321 c 0.888219,-0.2789114 1.351853,-0.3321787 2.779918,-0.3193855 1.521052,0.013627 1.845141,0.063073 2.880151,0.4394343 1.868876,0.6795791 2.661625,1.2439731 5.185319,3.6916731 1.298449,1.259349 2.714312,2.585103 3.146358,2.946119 1.360785,1.137064 3.855049,2.697265 5.909901,3.696743 2.205554,1.072776 2.203396,1.067118 0.570352,1.492471 -1.002459,0.261108 -2.555658,0.260269 -3.63568,-0.002 z"
       id="path989" />
    <path
       style="fill:#bb1219;fill-opacity:1;stroke-width:0.142826"
       d="M 55.690924,16.110494 C 54.411278,15.700923 53.261338,15.012664 51.094389,13.359383 45.49578,9.0878949 44.122227,8.3328789 41.256139,7.9514739 39.508552,7.7189131 37.35481,8.060881 35.342282,8.8904663 c -0.47933,0.1975851 1.353486,-1.7844331 2.481214,-2.6832006 3.490907,-2.7821521 7.036489,-2.8977242 10.840625,-0.3533619 1.568348,1.0489736 2.911047,2.4701818 4.636665,4.9077672 0.843441,1.191436 1.848141,2.489247 2.232663,2.884023 0.866355,0.889453 2.227773,1.781623 3.205583,2.100696 0.999583,0.326178 1.082998,0.389209 0.667963,0.504727 -0.722141,0.200995 -2.907054,0.118314 -3.716071,-0.140623 z"
       id="path991" />
    <path
       style="fill:#bb1219;fill-opacity:1;stroke:none;stroke-width:0.142826"
       d="m 20.345568,26.929212 c -1.037741,-0.237424 -2.104167,-0.874739 -2.565947,-1.533453 -0.427234,-0.609437 -0.433395,-0.643915 -0.433395,-2.425373 v -1.807148 l -1.031271,-0.54038 c -0.944893,-0.49512 -1.044868,-0.590822 -1.193612,-1.142607 -0.175936,-0.652657 -0.08257,-1.940672 0.176752,-2.438276 0.0878,-0.168486 0.493145,-0.691968 0.900758,-1.163294 0.407613,-0.471325 1.809225,-2.280944 3.114694,-4.021377 1.305469,-1.740432 2.511218,-3.2608285 2.679444,-3.3786579 0.229283,-0.1605966 0.315212,-0.3877671 0.343201,-0.907324 0.04362,-0.8097697 0.279705,-1.3099445 1.028412,-2.178845 C 24.921438,3.5857154 29.250935,1.2515487 31.985875,0.74448181 32.468376,0.6550249 32.460923,0.66587891 31.771636,1.0565076 30.529074,1.760685 29.797326,2.323099 28.90693,3.2582921 27.862085,4.355705 27.325354,5.1259262 26.519479,6.6843416 l -0.610812,1.181199 -0.8534,0.2612886 c -0.469371,0.1437082 -1.20658,0.329976 -1.638244,0.4139277 -0.431663,0.083952 -0.895897,0.2120741 -1.031629,0.284716 -0.214943,0.1150338 -5.539059,7.0405761 -5.539059,7.2051371 0,0.03427 0.167034,0.06231 0.371186,0.06231 0.535651,0 1.224829,0.364413 1.784236,0.94344 l 0.486856,0.503932 -1.285432,-0.09845 c -0.706989,-0.05415 -1.322936,-0.106652 -1.368772,-0.116676 -0.04584,-0.01003 -0.351126,0.222629 -0.678423,0.517003 -0.426582,0.383671 -0.594531,0.646545 -0.593133,0.928367 0.0038,0.773684 0.149662,0.980716 0.972307,1.380414 0.446086,0.216739 1.100288,0.576782 1.453782,0.800096 1.170071,0.739171 2.119762,1.041197 3.234274,1.028586 0.919921,-0.01041 1.078247,0.03094 1.606791,0.419635 0.332038,0.244184 0.586317,0.549708 0.586317,0.704479 0,0.362268 -0.07907,0.346959 -0.693576,-0.134282 -0.471333,-0.369117 -0.658587,-0.415725 -1.984409,-0.493915 -0.805181,-0.04749 -1.463965,-0.07246 -1.463965,-0.0555 0,0.01696 -0.192814,0.597736 -0.428477,1.290605 -0.235663,0.692868 -0.428478,1.382205 -0.428478,1.531859 0,0.284738 0.847059,0.786921 1.905761,1.12984 l 0.548916,0.177795 1.807711,-1.765087 c 0.994241,-0.970799 2.113001,-1.940254 2.486133,-2.154344 l 0.678423,-0.389254 v -1.137694 c 0,-0.625733 0.06105,-1.175424 0.13566,-1.221537 0.251127,-0.155206 0.435644,0.469806 0.435644,1.475651 0,1.133299 -0.0466,1.206839 -1.177659,1.858594 -0.41277,0.237851 -1.520745,1.206812 -2.462168,2.153245 -0.941423,0.946432 -1.744818,1.713904 -1.785323,1.705491 -0.0405,-0.0084 -0.330732,-0.07411 -0.644949,-0.146003 z"
       id="path993" />
    <path
       style="fill:#bb1219;fill-opacity:1;stroke-width:0.142826"
       d="m 22.076047,12.515941 c 0.373031,-0.474809 0.887151,-1.101457 1.142489,-1.392552 l 0.464252,-0.529264 0.686137,0.678423 0.686138,0.678423 -0.498012,8e-4 c -0.806466,0.0013 -1.449218,0.245456 -2.250525,0.854929 -0.414003,0.314891 -0.787829,0.572529 -0.830725,0.572529 -0.0429,0 0.227215,-0.38848 0.600246,-0.863288 z"
       id="path995" />
    <path
       style="fill:#bb1219;fill-opacity:1;stroke-width:0.142826"
       d="m 29.699658,5.4511862 c -0.251864,-0.3034768 -0.08695,-1.137263 0.357887,-1.809459 0.447153,-0.6756939 1.585051,-1.4270621 2.761273,-1.8233027 1.173232,-0.395233 1.313389,-0.3702403 0.652451,0.1163451 -0.783551,0.5768537 -1.211268,1.0736438 -1.983317,2.3036055 -0.369815,0.5891566 -0.774849,1.1515335 -0.900074,1.2497261 -0.306399,0.2402547 -0.670758,0.2251116 -0.88822,-0.036915 z"
       id="path997" />
    <path
       style="fill:#bb1219;fill-opacity:1;stroke-width:0.142826"
       d="M 33.914023,6.1016772 C 33.365508,5.8747964 32.950128,5.2796499 32.934897,4.6988116 32.897716,3.2808303 34.57411,2.2887607 37.978589,1.7140158 39.495675,1.4579008 43.264622,1.3803291 44.625962,1.577201 l 0.856954,0.1239293 -2.142386,0.5404963 c -3.736909,0.9427725 -5.464312,1.7043171 -7.666041,3.37966 -0.796706,0.6062303 -1.194078,0.7146639 -1.760466,0.4803906 z"
       id="path999" />
    <path
       style="fill:#bb1219;fill-opacity:1;stroke-width:0.142826"
       d="m 40.341187,36.290302 c -1.874338,-2.187335 -2.258469,-3.054115 -3.127627,-7.057404 -1.139285,-5.247477 -1.326393,-5.727422 -3.499732,-8.97703 -0.805266,-1.204046 -1.430095,-2.223201 -1.388508,-2.264788 0.04159,-0.04159 0.632834,0.365914 1.313883,0.905557 1.855083,1.469912 1.917318,1.514765 1.917318,1.38179 0,-0.0677 -0.2811,-0.763982 -0.624667,-1.54729 -0.845167,-1.926921 -1.724848,-4.409432 -2.174813,-6.13745 -0.456576,-1.753406 -0.547857,-4.1678533 -0.182896,-4.8377321 0.219578,-0.4030318 0.225074,-0.3872004 0.317478,0.9146032 0.05172,0.7286037 0.09403,1.6666809 0.09403,2.0846169 0,1.696804 2.324386,6.257055 6.06944,11.907734 3.736796,5.638219 7.276557,9.897349 9.962759,11.987443 0.790871,0.615361 0.964076,0.823564 0.964076,1.158852 0,0.56397 -0.263039,1.088622 -0.684122,1.364524 -0.381813,0.250175 -3.445892,0.573185 -3.593968,0.378869 -0.444127,-0.582811 -3.911175,-5.919905 -4.708728,-7.248505 -0.565869,-0.94265 -1.089105,-1.774968 -1.162747,-1.849595 -0.481605,-0.48804 0.415808,4.786786 1.307414,7.684738 0.23818,0.774149 0.413021,1.424852 0.388534,1.44601 -0.02449,0.02116 -0.558694,-0.561567 -1.187127,-1.294943 z"
       id="path1001" />
    <path
       style="fill:#bb1219;fill-opacity:1;stroke-width:0.142826"
       d="m 36.469721,36.281694 c -2.817488,-2.100029 -4.198195,-4.905046 -4.198195,-8.528972 0,-1.209863 -0.631243,-3.080199 -1.523869,-4.515134 -1.455544,-2.339851 -1.676215,-2.970379 -1.848676,-5.282253 l -0.100794,-1.351166 0.558356,0.448091 c 1.854202,1.488027 3.982105,4.088288 4.952066,6.051337 1.032187,2.088985 1.099897,2.425723 1.275535,6.34354 l 0.160073,3.570646 0.565522,1.285433 c 0.311036,0.706988 0.684286,1.558587 0.829443,1.892442 0.145158,0.333855 0.211178,0.60701 0.146712,0.60701 -0.06447,0 -0.431744,-0.234439 -0.816173,-0.520974 z"
       id="path1003" />
    <path
       style="fill:#bb1219;fill-opacity:1;stroke-width:0.142826"
       d="m 31.199108,35.679345 c -1.680423,-0.763399 -2.61948,-3.137484 -2.45834,-6.215073 0.08726,-1.666543 0.340565,-2.702478 0.982976,-4.020025 0.508009,-1.041896 0.611304,-1.037637 1.027381,0.04236 0.184806,0.479695 0.234969,1.126135 0.234969,3.028019 0,1.329966 0.06711,2.731038 0.149131,3.113495 0.08202,0.382457 0.531924,1.485053 0.999781,2.450214 0.467857,0.965161 0.85065,1.780159 0.85065,1.811107 0,0.165686 -1.294443,0.01346 -1.786548,-0.2101 z"
       id="path1005" />
    <path
       style="fill:#bb1219;fill-opacity:1;stroke-width:0.142826"
       d="M 27.625062,29.50398 C 27.572654,29.338858 27.095626,28.744345 26.565,28.182841 25.473435,27.027757 25.271739,26.7074 25.276197,26.135826 c 0.0068,-0.866191 0.625682,-1.81259 2.422353,-3.704017 l 1.00233,-1.055193 v 1.34032 1.34032 l -0.616457,0.155226 c -1.2666,0.318934 -1.466719,1.131585 -0.618728,2.512562 0.482596,0.785919 0.521056,0.930875 0.521056,1.963855 0,1.074131 -0.162932,1.441307 -0.361689,0.815081 z"
       id="path1007" />
    <path
       style="fill:#bb1219;fill-opacity:1;stroke-width:0.142826"
       d="M 50.767475,34.171156 C 49.616731,33.844322 49.269901,33.68383 48.252096,33.007197 45.823353,31.392571 43.396791,27.922496 41.517898,23.377038 41.124353,22.424967 39.869202,20.162117 38.08051,17.17994 c -1.549619,-2.583585 -2.790582,-4.724334 -2.757695,-4.75722 0.146916,-0.146916 3.754692,2.754506 5.334516,4.290089 2.823851,2.744775 4.418368,4.939737 6.397516,8.806617 0.663393,1.296145 1.496124,2.723917 1.850513,3.172829 1.294246,1.63943 3.583743,3.076883 5.86764,3.683974 0.624914,0.166111 1.231384,0.333889 1.347719,0.372842 0.14244,0.04769 0.0025,0.200611 -0.42848,0.468253 -1.556148,0.966356 -3.532763,1.349188 -4.924764,0.953832 z"
       id="path1009" />
    <path
       style="fill:#bb1219;fill-opacity:1;stroke-width:0.142826"
       d="m 53.814058,30.035684 c -1.875739,-0.771508 -3.120612,-2.058162 -5.075121,-5.245438 -2.188561,-3.568959 -4.905245,-7.318408 -7.319001,-10.101371 -0.567578,-0.654393 -0.998496,-1.223269 -0.957597,-1.264167 0.09425,-0.09425 5.380538,4.49253 9.305352,8.074024 3.556481,3.245378 4.146469,3.609928 5.99974,3.707199 1.481424,0.07775 2.474138,-0.207313 3.781986,-1.086031 0.51162,-0.343746 0.985443,-0.659647 1.05294,-0.702002 0.143191,-0.08985 0.02054,0.784743 -0.294723,2.101528 -0.521998,2.180315 -1.951551,4.128098 -3.388384,4.616717 -0.993344,0.337803 -2.128986,0.301061 -3.105192,-0.100459 z"
       id="path1011" />
  </g>
  <g
     id="g246"
     transform="matrix(1.2388315,0,0,1.2388315,104.47696,-95.028943)">
    <path
       d="m 9.1886537,87.350401 v 7.107834 l 5.6105283,-0.01165 5.604703,-0.01748 0.01748,-1.736176 0.01165,-1.73035 H 16.99562 13.558224 V 85.602572 80.242566 H 11.373439 9.1886537 Z"
       id="path124"
       style="fill:#bb1219;fill-opacity:1;stroke:none;stroke-width:0.00582609" />
    <path
       style="fill:#bb1219;fill-opacity:1;stroke-width:0.142826"
       d="m 22.416543,87.313836 v -7.069883 h 5.784447 5.784447 v 1.499672 1.499672 h -3.64206 -3.642058 v 1.21402 1.214019 h 3.42782 3.42782 v 1.356848 1.356844 h -3.42782 -3.42782 v 1.42826 1.42826 l 1.963855,5.68e-4 c 1.08012,4.37e-4 2.783319,0.04237 3.784885,0.09345 l 1.821029,0.09287 v 1.477628 1.477631 h -5.927273 -5.927272 z"
       id="path1013" />
    <path
       style="fill:#bb1219;fill-opacity:1;stroke-width:0.142826"
       d="m 42.540984,94.513159 c -3.962361,-0.334862 -6.276457,-3.013081 -6.268223,-7.254523 0.007,-3.622349 1.904091,-6.171652 5.16462,-6.940317 1.935245,-0.456231 4.724924,-0.138646 6.157689,0.70101 1.018818,0.597067 1.952915,1.636322 2.512429,2.795272 0.511712,1.059935 0.517659,1.093315 0.565912,3.175795 0.04295,1.853677 0.01177,2.219117 -0.261545,3.065119 -0.414419,1.282757 -0.886962,2.0566 -1.704976,2.79206 -1.516656,1.363607 -3.476088,1.892902 -6.165906,1.665584 z m 1.732143,-3.143037 c 0.892474,-0.1914 1.592279,-0.76963 1.918656,-1.585333 0.373808,-0.934227 0.457664,-3.283933 0.154425,-4.327033 -0.338647,-1.164897 -1.165332,-2.003042 -2.11632,-2.145651 -1.543805,-0.231509 -2.629863,0.24688 -3.237518,1.42607 -0.314892,0.611063 -0.372102,0.929399 -0.412961,2.297831 -0.02609,0.873669 0.02198,1.846262 0.106815,2.161316 0.296584,1.101425 1.100159,1.967426 2.029128,2.186752 0.683629,0.161403 0.742573,0.160879 1.557775,-0.01395 z"
       id="path1015" />
    <path
       style="fill:#bb1219;fill-opacity:1;stroke-width:0.142826"
       d="m 53.40975,87.309803 v -7.073907 l 1.948693,0.03974 1.948689,0.03974 2.649581,3.891085 c 1.736424,2.550051 2.688458,3.829872 2.762378,3.713471 0.06203,-0.09769 0.113774,-1.864745 0.11498,-3.926793 l 0.0022,-3.74918 h 1.999564 1.999559 v 7.069883 7.069879 l -2.035267,-0.0067 -2.035268,-0.0067 -2.642279,-3.885261 -2.642275,-3.885261 -0.08854,3.784888 c -0.0487,2.081685 -0.0969,3.833088 -0.10712,3.892003 -0.01022,0.05891 -0.886241,0.10712 -1.946723,0.10712 H 53.40975 Z"
       id="path1017" />
  </g>
</svg>
